<mxfile host="app.diagrams.net" modified="2022-11-24T07:03:35.257Z" agent="5.0 (Macintosh; Intel Mac OS X 10_15_7) AppleWebKit/605.1.15 (KHTML, like Gecko) Version/15.6.1 Safari/605.1.15" etag="VTxPgZbQzfeJQQcswmOJ" version="20.6.0" type="github">
  <diagram id="3BFR3GqZxXMxbAWBfeUj" name="Page-1">
    <mxGraphModel dx="930" dy="553" grid="0" gridSize="10" guides="1" tooltips="1" connect="1" arrows="1" fold="1" page="1" pageScale="1" pageWidth="827" pageHeight="1169" math="0" shadow="0">
      <root>
        <mxCell id="0" />
        <mxCell id="1" parent="0" />
        <mxCell id="6pjrII6g9MBGlCYJLemR-10" value="" style="rounded=1;whiteSpace=wrap;html=1;dashed=1;arcSize=0;" vertex="1" parent="1">
          <mxGeometry x="149" y="83" width="208" height="195" as="geometry" />
        </mxCell>
        <mxCell id="NzVSwbk70iNXb31Qm06j-4" value="" style="rounded=1;whiteSpace=wrap;html=1;dashed=1;" parent="1" vertex="1">
          <mxGeometry x="398.75" y="326" width="210.25" height="126" as="geometry" />
        </mxCell>
        <mxCell id="pgLIFL3BZB2Xo_3dE_xm-11" value="" style="rounded=1;whiteSpace=wrap;html=1;dashed=1;arcSize=0;" parent="1" vertex="1">
          <mxGeometry x="398.75" y="81" width="208" height="195" as="geometry" />
        </mxCell>
        <mxCell id="EAKdSy7ptGbpC2-vD8Ey-16" value="" style="rounded=1;whiteSpace=wrap;html=1;dashed=1;" parent="1" vertex="1">
          <mxGeometry x="149" y="326" width="214" height="122" as="geometry" />
        </mxCell>
        <mxCell id="EAKdSy7ptGbpC2-vD8Ey-15" value="100G线路" style="edgeStyle=none;rounded=1;orthogonalLoop=1;jettySize=auto;html=1;exitX=0.5;exitY=0;exitDx=0;exitDy=0;exitPerimeter=0;entryX=0.5;entryY=1;entryDx=0;entryDy=0;entryPerimeter=0;startArrow=none;startFill=0;endArrow=none;endFill=0;strokeColor=#000000;jumpSize=6;strokeWidth=3;" parent="1" source="EAKdSy7ptGbpC2-vD8Ey-10" target="EAKdSy7ptGbpC2-vD8Ey-14" edge="1">
          <mxGeometry relative="1" as="geometry">
            <mxPoint x="98" y="209" as="sourcePoint" />
          </mxGeometry>
        </mxCell>
        <mxCell id="EAKdSy7ptGbpC2-vD8Ey-10" value="接入交换机" style="shape=mxgraph.cisco.modems_and_phones.cable_modem;html=1;pointerEvents=1;dashed=0;fillColor=#036897;strokeColor=#ffffff;strokeWidth=2;verticalLabelPosition=bottom;verticalAlign=top;align=center;outlineConnect=0;" parent="1" vertex="1">
          <mxGeometry x="229" y="220" width="74" height="35" as="geometry" />
        </mxCell>
        <mxCell id="pgLIFL3BZB2Xo_3dE_xm-2" style="edgeStyle=none;orthogonalLoop=1;jettySize=auto;html=1;entryX=0;entryY=0.5;entryDx=0;entryDy=0;entryPerimeter=0;startArrow=none;startFill=0;endArrow=none;endFill=0;rounded=1;strokeColor=#0000FF;strokeWidth=4;" parent="1" source="EAKdSy7ptGbpC2-vD8Ey-14" target="pgLIFL3BZB2Xo_3dE_xm-1" edge="1">
          <mxGeometry relative="1" as="geometry" />
        </mxCell>
        <mxCell id="EAKdSy7ptGbpC2-vD8Ey-14" value="核心交换机" style="shape=mxgraph.cisco.hubs_and_gateways.generic_gateway;html=1;pointerEvents=1;dashed=0;fillColor=#036897;strokeColor=#ffffff;strokeWidth=2;verticalLabelPosition=bottom;verticalAlign=top;align=center;outlineConnect=0;" parent="1" vertex="1">
          <mxGeometry x="241.5" y="101" width="49" height="60" as="geometry" />
        </mxCell>
        <mxCell id="EAKdSy7ptGbpC2-vD8Ey-17" style="edgeStyle=none;rounded=1;orthogonalLoop=1;jettySize=auto;html=1;exitX=0.5;exitY=0;exitDx=0;exitDy=0;startArrow=none;startFill=0;endArrow=none;endFill=0;" parent="1" source="EAKdSy7ptGbpC2-vD8Ey-16" target="EAKdSy7ptGbpC2-vD8Ey-16" edge="1">
          <mxGeometry relative="1" as="geometry" />
        </mxCell>
        <mxCell id="pgLIFL3BZB2Xo_3dE_xm-1" value="核心交换机" style="shape=mxgraph.cisco.hubs_and_gateways.generic_gateway;html=1;pointerEvents=1;dashed=0;fillColor=#036897;strokeColor=#ffffff;strokeWidth=2;verticalLabelPosition=bottom;verticalAlign=top;align=center;outlineConnect=0;" parent="1" vertex="1">
          <mxGeometry x="488" y="101" width="49" height="60" as="geometry" />
        </mxCell>
        <mxCell id="pgLIFL3BZB2Xo_3dE_xm-4" value="已有100G*2专线" style="text;html=1;align=center;verticalAlign=middle;resizable=0;points=[];autosize=1;" parent="1" vertex="1">
          <mxGeometry x="309" y="142" width="107" height="26" as="geometry" />
        </mxCell>
        <mxCell id="pgLIFL3BZB2Xo_3dE_xm-6" value="&lt;span style=&quot;font-size: 14px;&quot;&gt;城开&lt;/span&gt;" style="text;html=1;resizable=0;autosize=1;align=center;verticalAlign=middle;points=[];fillColor=#fa6800;strokeColor=#C73500;rounded=0;dashed=1;fontColor=#ffffff;fontStyle=1" parent="1" vertex="1">
          <mxGeometry x="173" y="339" width="46" height="28" as="geometry" />
        </mxCell>
        <mxCell id="pgLIFL3BZB2Xo_3dE_xm-12" value="&lt;span style=&quot;font-size: 14px;&quot;&gt;宝山&lt;/span&gt;" style="text;html=1;resizable=0;autosize=1;align=center;verticalAlign=middle;points=[];fillColor=#fa6800;strokeColor=#C73500;rounded=0;dashed=1;fontColor=#ffffff;fontStyle=1" parent="1" vertex="1">
          <mxGeometry x="168" y="95" width="46" height="28" as="geometry" />
        </mxCell>
        <mxCell id="CFlZzpwRj5Hc7I2CVyy_-19" value="接入交换机" style="shape=mxgraph.cisco.modems_and_phones.cable_modem;html=1;pointerEvents=1;dashed=0;fillColor=#036897;strokeColor=#ffffff;strokeWidth=2;verticalLabelPosition=bottom;verticalAlign=top;align=center;outlineConnect=0;" parent="1" vertex="1">
          <mxGeometry x="475.5" y="218" width="74" height="35" as="geometry" />
        </mxCell>
        <mxCell id="CFlZzpwRj5Hc7I2CVyy_-22" style="edgeStyle=none;rounded=1;orthogonalLoop=1;jettySize=auto;html=1;exitX=0.5;exitY=0;exitDx=0;exitDy=0;startArrow=none;startFill=0;endArrow=none;endFill=0;" parent="1" edge="1">
          <mxGeometry relative="1" as="geometry">
            <mxPoint x="560.2499999999998" y="272" as="sourcePoint" />
            <mxPoint x="560.2499999999998" y="272" as="targetPoint" />
          </mxGeometry>
        </mxCell>
        <mxCell id="CFlZzpwRj5Hc7I2CVyy_-23" value="&lt;span style=&quot;font-size: 14px;&quot;&gt;紫竹&lt;/span&gt;" style="text;html=1;resizable=0;autosize=1;align=center;verticalAlign=middle;points=[];fillColor=#fa6800;strokeColor=#C73500;rounded=0;dashed=1;fontColor=#ffffff;fontStyle=1" parent="1" vertex="1">
          <mxGeometry x="428" y="337" width="46" height="28" as="geometry" />
        </mxCell>
        <mxCell id="CFlZzpwRj5Hc7I2CVyy_-25" style="edgeStyle=none;rounded=1;orthogonalLoop=1;jettySize=auto;html=1;exitX=0.5;exitY=0;exitDx=0;exitDy=0;exitPerimeter=0;entryX=0.5;entryY=1;entryDx=0;entryDy=0;entryPerimeter=0;startArrow=none;startFill=0;endArrow=none;endFill=0;strokeWidth=3;" parent="1" source="CFlZzpwRj5Hc7I2CVyy_-19" target="pgLIFL3BZB2Xo_3dE_xm-1" edge="1">
          <mxGeometry relative="1" as="geometry">
            <mxPoint x="508.9100000000002" y="282" as="sourcePoint" />
            <mxPoint x="508.9100000000002" y="202" as="targetPoint" />
          </mxGeometry>
        </mxCell>
        <mxCell id="6pjrII6g9MBGlCYJLemR-17" value="100G线路" style="edgeLabel;html=1;align=center;verticalAlign=middle;resizable=0;points=[];" vertex="1" connectable="0" parent="CFlZzpwRj5Hc7I2CVyy_-25">
          <mxGeometry x="-0.193" relative="1" as="geometry">
            <mxPoint x="1" as="offset" />
          </mxGeometry>
        </mxCell>
        <mxCell id="dk0VxwSReU-h2MXsKodl-3" value="核心交换机" style="shape=mxgraph.cisco.modems_and_phones.cable_modem;html=1;pointerEvents=1;dashed=0;fillColor=#036897;strokeColor=#ffffff;strokeWidth=2;verticalLabelPosition=bottom;verticalAlign=top;align=center;outlineConnect=0;" parent="1" vertex="1">
          <mxGeometry x="229" y="360" width="74" height="35" as="geometry" />
        </mxCell>
        <mxCell id="NzVSwbk70iNXb31Qm06j-6" value="&lt;font size=&quot;5&quot;&gt;&lt;span style=&quot;font-weight: 400;&quot;&gt;光纤网络&lt;/span&gt;&lt;/font&gt;" style="text;html=1;resizable=0;autosize=1;align=center;verticalAlign=middle;points=[];rounded=0;dashed=1;fontStyle=1;" parent="1" vertex="1">
          <mxGeometry x="319" y="25" width="114" height="40" as="geometry" />
        </mxCell>
        <mxCell id="6pjrII6g9MBGlCYJLemR-1" style="orthogonalLoop=1;jettySize=auto;html=1;entryX=1;entryY=0.45;entryDx=0;entryDy=0;entryPerimeter=0;startArrow=none;startFill=0;endArrow=none;endFill=0;rounded=1;strokeColor=#CC6600;strokeWidth=4;exitX=0;exitY=0.5;exitDx=0;exitDy=0;exitPerimeter=0;" edge="1" parent="1" source="6pjrII6g9MBGlCYJLemR-14" target="dk0VxwSReU-h2MXsKodl-3">
          <mxGeometry relative="1" as="geometry">
            <mxPoint x="180" y="475.5585585585585" as="sourcePoint" />
            <mxPoint x="377.5" y="472" as="targetPoint" />
          </mxGeometry>
        </mxCell>
        <mxCell id="6pjrII6g9MBGlCYJLemR-11" value="&lt;span style=&quot;font-size: 14px;&quot;&gt;外高桥&lt;/span&gt;" style="text;html=1;resizable=0;autosize=1;align=center;verticalAlign=middle;points=[];fillColor=#fa6800;strokeColor=#C73500;rounded=0;dashed=1;fontColor=#ffffff;fontStyle=1" vertex="1" parent="1">
          <mxGeometry x="416" y="93" width="60" height="28" as="geometry" />
        </mxCell>
        <mxCell id="6pjrII6g9MBGlCYJLemR-12" style="orthogonalLoop=1;jettySize=auto;html=1;entryX=0.5;entryY=1;entryDx=0;entryDy=0;entryPerimeter=0;startArrow=none;startFill=0;endArrow=none;endFill=0;rounded=1;strokeColor=#CC6600;strokeWidth=4;exitX=0.5;exitY=0;exitDx=0;exitDy=0;exitPerimeter=0;" edge="1" parent="1" source="6pjrII6g9MBGlCYJLemR-14" target="CFlZzpwRj5Hc7I2CVyy_-19">
          <mxGeometry relative="1" as="geometry">
            <mxPoint x="190" y="485.5585585585586" as="sourcePoint" />
            <mxPoint x="387.5" y="482" as="targetPoint" />
          </mxGeometry>
        </mxCell>
        <mxCell id="6pjrII6g9MBGlCYJLemR-13" style="orthogonalLoop=1;jettySize=auto;html=1;entryX=0.5;entryY=1;entryDx=0;entryDy=0;entryPerimeter=0;startArrow=none;startFill=0;endArrow=none;endFill=0;rounded=1;strokeColor=#CC6600;strokeWidth=4;exitX=0.5;exitY=0;exitDx=0;exitDy=0;exitPerimeter=0;" edge="1" parent="1" source="dk0VxwSReU-h2MXsKodl-3" target="EAKdSy7ptGbpC2-vD8Ey-10">
          <mxGeometry relative="1" as="geometry">
            <mxPoint x="40" y="318.5585585585586" as="sourcePoint" />
            <mxPoint x="237.5" y="315" as="targetPoint" />
          </mxGeometry>
        </mxCell>
        <mxCell id="6pjrII6g9MBGlCYJLemR-14" value="核心交换机" style="shape=mxgraph.cisco.modems_and_phones.cable_modem;html=1;pointerEvents=1;dashed=0;fillColor=#036897;strokeColor=#ffffff;strokeWidth=2;verticalLabelPosition=bottom;verticalAlign=top;align=center;outlineConnect=0;" vertex="1" parent="1">
          <mxGeometry x="475.5" y="357" width="74" height="35" as="geometry" />
        </mxCell>
        <mxCell id="6pjrII6g9MBGlCYJLemR-15" style="edgeStyle=none;orthogonalLoop=1;jettySize=auto;html=1;entryX=0;entryY=0.5;entryDx=0;entryDy=0;entryPerimeter=0;startArrow=none;startFill=0;endArrow=none;endFill=0;rounded=1;strokeColor=#0000FF;strokeWidth=4;" edge="1" parent="1">
          <mxGeometry relative="1" as="geometry">
            <mxPoint x="290.5" y="141" as="sourcePoint" />
            <mxPoint x="488" y="141" as="targetPoint" />
          </mxGeometry>
        </mxCell>
      </root>
    </mxGraphModel>
  </diagram>
</mxfile>
